<svg xmlns="http://www.w3.org/2000/svg" viewBox="0 0 512 512" fill="#fef9ff">
  <path d="M256 0C114.837 0 0 114.837 0 256s114.837 256 256 256 256-114.837 256-256S397.163 0 256 0zm0 490.667c-39.851 0-77.376-10.048-110.272-27.648l43.136-14.379a10.646 10.646 0 006.976-7.531l9.877-39.509a10.678 10.678 0 00-3.051-10.368c-20.245-18.987-33.643-46.827-35.84-74.453a10.671 10.671 0 00-10.645-9.813h-3.285a9.488 9.488 0 01-9.408-8.299l-5.035-40.299c-.341-2.731.491-5.376 2.304-7.445s4.352-3.2 9.195-3.2a10.62 10.62 0 008-3.605 10.637 10.637 0 002.581-8.384c-1.301-10.325-4.672-39.232-4.672-49.045 0-31.125 6.123-59.115 80.107-59.861 2.176-.021 4.331-.704 6.101-1.984 22.357-16 46.4-18.155 66.944-18.155 28.096 0 47.936 8.533 58.965 25.387 13.163 20.096 7.531 30.443 1.387 36.992l-10.069 10.069a10.646 10.646 0 00-3.115 7.019l-2.453 50.411a10.626 10.626 0 002.88 7.829c1.984 2.091 4.736 3.328 7.637 3.349 2.752.043 5.269 1.195 7.061 3.264 1.792 2.048 2.581 4.672 2.24 7.36l-5.035 40.299c-.597 4.736-4.629 8.299-10.389 8.299a10.672 10.672 0 00-10.645 9.813c-2.24 28.501-16.277 56.875-37.547 75.947a10.63 10.63 0 00-3.221 10.517l9.472 37.867a10.688 10.688 0 006.976 7.531l43.136 14.379c-32.917 17.598-70.442 27.646-110.293 27.646zm133.909-42.24l-54.4-18.133-6.528-26.133c20.523-20.437 34.581-48.363 38.848-77.077 11.499-3.392 20.352-13.333 21.909-25.749l5.035-40.299a30.712 30.712 0 00-7.339-24.021 30.724 30.724 0 00-11.925-8.427l1.813-37.291 7.381-7.381c11.499-12.224 21.035-33.173 1.152-63.531-15.232-23.253-41.088-35.051-76.821-35.051-14.037 0-46.379 0-76.544 20.203-86.187 1.856-97.92 41.984-97.92 81.131 0 8.96 2.155 28.949 3.584 41.301a30.994 30.994 0 00-13.355 8.832 30.853 30.853 0 00-7.488 24.213l5.035 40.299c1.664 13.269 11.648 23.701 24.299 26.347 4.245 27.563 17.579 54.592 36.907 74.667l-6.976 27.925-54.507 18.176C61.269 405.973 21.333 335.616 21.333 256c0-129.387 105.28-234.667 234.667-234.667S490.667 126.613 490.667 256c0 79.616-39.936 149.995-100.758 192.427z"/>
</svg>
